<?xml version="1.0" encoding="utf-8"?>
<!-- Generator: Adobe Illustrator 15.1.0, SVG Export Plug-In . SVG Version: 6.00 Build 0)  -->
<!DOCTYPE svg PUBLIC "-//W3C//DTD SVG 1.1//EN" "http://www.w3.org/Graphics/SVG/1.1/DTD/svg11.dtd">
<svg version="1.1" id="Layer_1" xmlns="http://www.w3.org/2000/svg" xmlns:xlink="http://www.w3.org/1999/xlink" x="0px" y="0px"
	 width="88.836px" height="100px" viewBox="0 0 88.836 100" enable-background="new 0 0 88.836 100" xml:space="preserve">
<path fill="#010101" d="M84.669,36.383l-8.159,4.708c0.781,2.843,1.241,5.817,1.241,8.906c0,3.092-0.452,6.068-1.241,8.913
	l8.159,4.704c3.983,2.303,5.352,7.398,3.048,11.387c-2.304,3.983-7.395,5.351-11.383,3.044l-8.143-4.696
	c-4.18,4.248-9.49,7.357-15.439,8.888v9.429c0,4.603-3.736,8.335-8.334,8.335c-4.601,0-8.334-3.732-8.334-8.335v-9.429
	c-5.952-1.53-11.265-4.64-15.44-8.888L12.5,78.045c-3.988,2.307-9.083,0.939-11.38-3.044c-2.303-3.988-0.938-9.084,3.046-11.387
	l8.159-4.704c-0.788-2.845-1.241-5.82-1.241-8.913c0-3.089,0.45-6.063,1.241-8.906l-8.159-4.708
	c-3.984-2.303-5.35-7.396-3.046-11.384c2.301-3.984,7.393-5.352,11.38-3.046l8.143,4.7c4.175-4.25,9.488-7.36,15.44-8.892V8.334
	C36.083,3.734,39.817,0,44.417,0c4.598,0,8.334,3.734,8.334,8.334v9.427c5.949,1.532,11.26,4.642,15.439,8.892l8.143-4.7
	c3.988-2.306,9.084-0.938,11.383,3.046C90.021,28.987,88.652,34.084,84.669,36.383z M44.417,33.333
	c-9.206,0-16.669,7.463-16.669,16.665c0,9.206,7.463,16.668,16.669,16.668c9.205,0,16.665-7.463,16.665-16.668
	C61.082,40.797,53.622,33.333,44.417,33.333z"/>
</svg>
